<svg xmlns="http://www.w3.org/2000/svg" style="display: none;">

    <symbol id="cog" viewBox="0 0 96 96">
        <path d="M93.3,40.5 L83.8,37.9 C82.4,34.6 81.8,33.2 80.5,29.8 L85.4,21.2 C86.1,20 85.9,18.5 84.9,17.6 L78.5,11.2 C77.5,10.2 76,10 74.9,10.7 L66.3,15.6 C63,14.2 61.6,13.6 58.2,12.3 L55.6,2.8 C55.2,1.5 54,0.6 52.7,0.6 L43.6,0.6 C42.2,0.6 41,1.5 40.7,2.8 L38.1,12.3 C34.8,13.7 33.4,14.3 30,15.6 L21.4,10.7 C20.2,10 18.7,10.2 17.8,11.2 L11.4,17.6 C10.4,18.6 10.2,20.1 10.9,21.2 L15.8,29.8 C14.4,33.1 13.8,34.5 12.5,37.9 L3,40.5 C1.7,40.9 0.8,42.1 0.8,43.4 L0.8,52.5 C0.8,53.9 1.7,55.1 3,55.4 L12.5,58 C13.9,61.3 14.5,62.7 15.8,66.1 L10.9,74.7 C10.2,75.9 10.4,77.4 11.4,78.3 L17.8,84.7 C18.8,85.7 20.3,85.9 21.4,85.2 L30,80.3 C33.3,81.7 34.7,82.3 38.1,83.6 L40.7,93.1 C41.1,94.4 42.3,95.3 43.6,95.3 L52.7,95.3 C54.1,95.3 55.3,94.4 55.6,93.1 L58.2,83.6 C61.5,82.2 62.9,81.6 66.3,80.3 L74.9,85.2 C76.1,85.9 77.6,85.7 78.5,84.7 L84.9,78.3 C85.9,77.3 86.1,75.8 85.4,74.7 L80.5,66.1 C81.9,62.8 82.5,61.4 83.8,58 L93.3,55.4 C94.6,55 95.5,53.8 95.5,52.5 L95.5,43.4 C95.5,42.1 94.6,40.9 93.3,40.5 Z M48,69 C36.4,69 27,59.6 27,48 C27,36.4 36.4,27 48,27 C59.6,27 69,36.4 69,48 C69,59.6 59.6,69 48,69 Z" id="Shape" fill="var(--color)" fill-rule="nonzero"></path>
    </symbol>

</svg>
