<svg xmlns="http://www.w3.org/2000/svg" style="display: none;">

    <symbol id="cog" viewBox="0 0 96 96">
        <path d="M93.3,40.5 L83.8,37.9 C82.4,34.6 81.8,33.2 80.5,29.8 L85.4,21.2 C86.1,20 85.9,18.5 84.9,17.6 L78.5,11.2 C77.5,10.2 76,10 74.9,10.7 L66.3,15.6 C63,14.2 61.6,13.6 58.2,12.3 L55.6,2.8 C55.2,1.5 54,0.6 52.7,0.6 L43.6,0.6 C42.2,0.6 41,1.5 40.7,2.8 L38.1,12.3 C34.8,13.7 33.4,14.3 30,15.6 L21.4,10.7 C20.2,10 18.7,10.2 17.8,11.2 L11.4,17.6 C10.4,18.6 10.2,20.1 10.9,21.2 L15.8,29.8 C14.4,33.1 13.8,34.5 12.5,37.9 L3,40.5 C1.7,40.9 0.8,42.1 0.8,43.4 L0.8,52.5 C0.8,53.9 1.7,55.1 3,55.4 L12.5,58 C13.9,61.3 14.5,62.7 15.8,66.1 L10.9,74.7 C10.2,75.9 10.4,77.4 11.4,78.3 L17.8,84.7 C18.8,85.7 20.3,85.9 21.4,85.2 L30,80.3 C33.3,81.7 34.7,82.3 38.1,83.6 L40.7,93.1 C41.1,94.4 42.3,95.3 43.6,95.3 L52.7,95.3 C54.1,95.3 55.3,94.4 55.6,93.1 L58.2,83.6 C61.5,82.2 62.9,81.6 66.3,80.3 L74.9,85.2 C76.1,85.9 77.6,85.7 78.5,84.7 L84.9,78.3 C85.9,77.3 86.1,75.8 85.4,74.7 L80.5,66.1 C81.9,62.8 82.5,61.4 83.8,58 L93.3,55.4 C94.6,55 95.5,53.8 95.5,52.5 L95.5,43.4 C95.5,42.1 94.6,40.9 93.3,40.5 Z M48,69 C36.4,69 27,59.6 27,48 C27,36.4 36.4,27 48,27 C59.6,27 69,36.4 69,48 C69,59.6 59.6,69 48,69 Z" id="Shape" fill="var(--color)" fill-rule="nonzero"></path>
    </symbol>

    <symbol id="sun" viewBox="0 0 96 96">
        <g id="Group" transform="translate(0.500000, 0.500000)" fill="var(--color)" fill-rule="nonzero">
            <path d="M47.5,24.5 C34.8,24.5 24.5,34.8 24.5,47.5 C24.5,60.2 34.8,70.5 47.5,70.5 C60.2,70.5 70.5,60.2 70.5,47.5 C70.5,34.8 60.2,24.5 47.5,24.5 Z" id="Path"></path>
            <path d="M47.5,17.9 C50.6,17.9 53,15.4 53,12.4 C53,9.4 50.6,0 47.5,0 C44.4,0 42,9.3 42,12.4 C42,15.5 44.4,17.9 47.5,17.9 Z" id="Path"></path>
            <path d="M26.6,26.6 C28.8,24.4 28.8,20.9 26.6,18.8 C24.4,16.7 16.1,11.8 13.9,14 C11.7,16.2 16.6,24.5 18.7,26.7 C20.9,28.8 24.4,28.8 26.6,26.6 Z" id="Path"></path>
            <path d="M17.9,47.5 C17.9,44.4 15.4,42 12.4,42 C9.4,42 0,44.4 0,47.5 C0,50.6 9.3,53 12.4,53 C15.5,53 17.9,50.6 17.9,47.5 Z" id="Path"></path>
            <path d="M18.8,68.4 C16.6,70.6 11.8,78.9 14,81.1 C16.2,83.3 24.5,78.4 26.7,76.3 C28.9,74.1 28.9,70.6 26.7,68.5 C24.5,66.4 20.9,66.2 18.8,68.4 Z" id="Path"></path>
            <path d="M47.5,77.1 C44.4,77.1 42,79.6 42,82.6 C42,85.6 44.5,95 47.5,95 C50.6,95 53,85.7 53,82.6 C53,79.5 50.6,77.1 47.5,77.1 Z" id="Path"></path>
            <path d="M68.4,68.4 C66.2,70.6 66.2,74.1 68.4,76.2 C70.6,78.4 78.9,83.2 81.1,81 C83.3,78.8 78.4,70.5 76.3,68.3 C74.2,66.1 70.6,66.2 68.4,68.4 Z" id="Path"></path>
            <path d="M82.6,42 C79.5,42 77.1,44.5 77.1,47.5 C77.1,50.6 79.6,53 82.6,53 C85.7,53 95,50.5 95,47.5 C95,44.4 85.7,42 82.6,42 Z" id="Path"></path>
            <path d="M76.2,26.6 C78.4,24.4 83.2,16.1 81,13.9 C78.8,11.7 70.5,16.6 68.3,18.7 C66.1,20.8 66.1,24.4 68.3,26.5 C70.6,28.8 74.1,28.8 76.2,26.6 Z" id="Path"></path>
        </g>
    </symbol>

    <symbol id="water" viewBox="0 0 318 442">
        <path d="M287.82,190.82 L158.421,0.064 L29.7,190.387 C-17.4968351,256.654056 -7.0614591,347.857447 53.884,401.751 C114.073,455.158 204.676,455.351 264.635,402.203 L264.635,402.203 C325.389908,348.157706 335.441533,256.924799 287.91,190.949 L287.82,190.82 Z" id="Path" fill="var(--color)" fill-rule="nonzero"></path>
    </symbol>

</svg>
